<?xml version="1.0" standalone="no"?>
<!DOCTYPE svg PUBLIC "-//W3C//DTD SVG 20010904//EN"
 "http://www.w3.org/TR/2001/REC-SVG-20010904/DTD/svg10.dtd">
<svg version="1.0" xmlns="http://www.w3.org/2000/svg"
 width="229.000000pt" height="220.000000pt" viewBox="0 0 229.000000 220.000000"
 preserveAspectRatio="xMidYMid meet">

<g transform="translate(0.000000,220.000000) scale(0.100000,-0.100000)"
fill="#000000" stroke="none">
<path d="M998 1211 c10 -6 13 -28 10 -80 -2 -58 0 -71 12 -71 12 0 14 14 12
80 -3 75 -5 80 -25 80 -16 0 -18 -3 -9 -9z"/>
<path d="M1458 1208 c21 -21 14 -48 -11 -48 -48 0 -74 -61 -39 -92 12 -12 28
-14 57 -9 25 4 35 9 28 14 -9 5 -13 33 -13 78 0 58 -3 69 -17 69 -13 0 -14 -3
-5 -12z m10 -96 c4 -38 -20 -54 -45 -29 -23 23 -9 69 20 65 17 -2 23 -11 25
-36z"/>
<path d="M1645 1140 c0 -67 3 -80 16 -80 12 0 15 7 12 28 l-4 27 21 -27 c12
-16 29 -28 38 -28 12 0 9 7 -12 29 l-27 28 27 22 c24 19 25 21 6 21 -12 0 -23
-8 -27 -20 -12 -37 -25 -21 -25 30 0 33 -4 50 -12 50 -9 0 -13 -23 -13 -80z"/>
<path d="M340 1195 c8 -10 11 -36 8 -75 -4 -50 -2 -60 12 -60 12 0 15 8 12 36
-4 33 -2 35 19 32 30 -4 38 -37 13 -55 -15 -11 -16 -13 -2 -13 18 0 48 26 48
40 0 5 -7 16 -15 24 -13 12 -14 20 -5 36 17 32 -4 50 -57 50 -39 0 -44 -2 -33
-15z m73 -7 c6 -19 -11 -48 -28 -48 -10 0 -15 10 -15 30 0 23 5 30 19 30 11 0
21 -6 24 -12z"/>
<path d="M575 1200 c-3 -5 1 -10 9 -10 9 0 16 5 16 10 0 6 -4 10 -9 10 -6 0
-13 -4 -16 -10z"/>
<path d="M850 1200 c0 -5 5 -10 10 -10 6 0 10 5 10 10 0 6 -4 10 -10 10 -5 0
-10 -4 -10 -10z"/>
<path d="M1915 1199 c-11 -4 -14 -8 -7 -8 10 -1 13 -17 10 -66 -2 -53 0 -65
12 -65 12 0 14 11 12 52 -5 96 -5 96 -27 87z"/>
<path d="M1768 1170 c-10 -11 -13 -20 -8 -20 6 0 10 -20 10 -44 0 -49 11 -62
37 -47 17 10 17 10 1 11 -14 0 -18 9 -18 39 0 29 5 41 18 44 15 4 15 5 0 6 -9
0 -18 8 -20 16 -2 13 -6 12 -20 -5z"/>
<path d="M475 1136 c-30 -45 10 -100 55 -76 27 14 25 18 -4 13 -17 -4 -27 1
-35 15 -13 24 -6 32 31 32 23 0 29 4 26 18 -5 29 -54 28 -73 -2z m55 4 c0 -5
-9 -10 -20 -10 -11 0 -20 5 -20 10 0 6 9 10 20 10 11 0 20 -4 20 -10z"/>
<path d="M575 1110 c0 -33 4 -50 13 -50 8 0 12 17 12 50 0 33 -4 50 -13 50 -8
0 -12 -16 -12 -50z"/>
<path d="M633 1143 c-4 -11 3 -24 23 -39 23 -19 26 -26 16 -36 -11 -11 -16 -9
-28 6 -11 16 -14 17 -14 4 0 -21 27 -30 51 -18 26 15 24 36 -7 56 -14 9 -23
23 -20 30 3 8 1 14 -5 14 -5 0 -12 -7 -16 -17z"/>
<path d="M675 1150 c3 -5 8 -10 11 -10 2 0 4 5 4 10 0 6 -5 10 -11 10 -5 0 -7
-4 -4 -10z"/>
<path d="M719 1147 c15 -15 14 -120 -1 -135 -9 -9 -6 -12 17 -12 23 0 26 3 17
12 -16 16 -15 38 2 38 44 0 84 73 54 98 -18 14 -103 13 -89 -1z m71 -11 c6 -8
10 -25 8 -38 -2 -17 -10 -23 -28 -23 -20 0 -26 6 -28 29 -5 40 25 59 48 32z"/>
<path d="M848 1110 c2 -29 9 -50 15 -50 8 0 11 17 9 50 -2 29 -9 50 -15 50 -8
0 -11 -17 -9 -50z"/>
<path d="M911 1141 c-15 -28 -14 -57 5 -75 19 -20 25 -20 50 0 10 8 13 13 6 9
-7 -3 -21 -3 -33 0 -16 5 -19 14 -17 38 2 21 9 33 21 35 9 2 17 -1 17 -7 0 -5
-8 -12 -17 -14 -11 -3 -7 -5 10 -6 22 -1 28 3 25 17 -5 26 -54 28 -67 3z"/>
<path d="M1065 1079 c0 -78 0 -79 25 -78 14 0 19 3 13 6 -22 8 -16 49 8 50 35
3 50 23 47 62 -3 35 -4 36 -48 38 l-45 1 0 -79z m70 31 c0 -29 -4 -36 -22 -38
-20 -3 -23 1 -23 31 0 38 7 49 30 45 10 -2 15 -15 15 -38z"/>
<path d="M1195 1109 c0 -32 4 -49 13 -49 7 0 12 15 12 40 0 33 3 40 20 40 11
0 20 4 20 9 0 5 -15 9 -33 9 -32 0 -32 0 -32 -49z"/>
<path d="M1282 1148 c-21 -21 -14 -66 13 -84 23 -15 27 -15 50 0 27 18 34 63
13 84 -15 15 -61 15 -76 0z m62 -14 c17 -44 -10 -88 -39 -64 -15 13 -21 61 -8
73 12 13 41 7 47 -9z"/>
<path d="M1518 1148 c7 -7 12 -29 12 -49 0 -38 20 -57 43 -42 7 4 23 7 37 5
14 -1 19 1 13 4 -8 3 -13 24 -13 50 0 29 -4 44 -13 44 -9 0 -11 -12 -9 -40 3
-31 0 -41 -13 -46 -23 -9 -37 14 -31 54 4 28 2 32 -17 32 -16 0 -18 -3 -9 -12z"/>
</g>
</svg>
